# xmcd CD database file
#
# Track frame offsets:
#	180
#	14222
#	29675
#	43172
#	56907
#	70468
#	84119
#	96043
#	113998
#	129535
#	143547
#	159609
#	174638
#	196583
#	210925
#	225962
#	238617
#	251090
#
# Disc length: 3584 seconds
#
# Revision: 0
# Processed by: cddbd v1.5.1PL0 Copyright (c) Steve Scherf et al.
# Submitted via: CDex 1.50
#
DISCID=f60dfe12
DTITLE=Divers - Ballads in jazz
DYEAR=1900
DGENRE=Jazz
TTITLE0=Duke Ellington - Mood indigo
TTITLE1=Louis Armstrong - I'm confessin'
TTITLE2=Django Reinhart - In a sentimental mood
TTITLE3=Billie Holiday - Easy living
TTITLE4=Teddy Wilson - Don't blame me
TTITLE5=Coleman Hawkins - body and soul
TTITLE6=Jimmie Lunceford - I'm alone with you
TTITLE7=Chu Berry - On the sunny side of the street
TTITLE8=Glen Miller - Moonlight serenade
TTITLE9=Fats Waller - Two sleepy people
TTITLE10=Ben Webster - All too soon
TTITLE11=Lionel Hampton - Ain't cha comin' home?
TTITLE12=Bunny Berigan - I can't get started
TTITLE13=Rex Stewart - My sunday gal
TTITLE14=Ivie Anderson - I got it bad and that ain't good
TTITLE15=Benny Carter - More than you know
TTITLE16=Johnny Hodges - Finesse
TTITLE17=Roy Elridge - Stardus
EXTD=
EXTT0=
EXTT1=
EXTT2=
EXTT3=
EXTT4=
EXTT5=
EXTT6=
EXTT7=
EXTT8=
EXTT9=
EXTT10=
EXTT11=
EXTT12=
EXTT13=
EXTT14=
EXTT15=
EXTT16=
EXTT17=
PLAYORDER=
